G04 EAGLE Gerber RS-274X export*
G75*
%MOMM*%
%FSLAX34Y34*%
%LPD*%
%INTop Copper*%
%IPPOS*%
%AMOC8*
5,1,8,0,0,1.08239X$1,22.5*%
G01*
%ADD10C,0.279400*%
%ADD11P,1.429621X8X202.500000*%
%ADD12P,1.429621X8X22.500000*%
%ADD13C,1.320800*%
%ADD14P,1.539592X8X202.500000*%
%ADD15P,1.539592X8X112.500000*%
%ADD16P,1.539592X8X22.500000*%
%ADD17C,1.524000*%
%ADD18C,1.016000*%
%ADD19C,0.254000*%


D10*
X86703Y277693D02*
X81708Y277693D01*
X81708Y277692D02*
X81594Y277690D01*
X81481Y277684D01*
X81367Y277675D01*
X81255Y277661D01*
X81142Y277644D01*
X81030Y277622D01*
X80920Y277597D01*
X80810Y277569D01*
X80701Y277536D01*
X80593Y277500D01*
X80486Y277460D01*
X80381Y277416D01*
X80278Y277369D01*
X80176Y277319D01*
X80076Y277265D01*
X79978Y277207D01*
X79882Y277146D01*
X79788Y277083D01*
X79696Y277015D01*
X79606Y276945D01*
X79520Y276872D01*
X79435Y276796D01*
X79353Y276717D01*
X79274Y276635D01*
X79198Y276551D01*
X79125Y276464D01*
X79055Y276374D01*
X78988Y276282D01*
X78924Y276188D01*
X78863Y276092D01*
X78805Y275994D01*
X78751Y275894D01*
X78701Y275792D01*
X78654Y275689D01*
X78610Y275584D01*
X78570Y275477D01*
X78534Y275369D01*
X78501Y275260D01*
X78473Y275150D01*
X78448Y275040D01*
X78426Y274928D01*
X78409Y274815D01*
X78395Y274703D01*
X78386Y274589D01*
X78380Y274476D01*
X78378Y274362D01*
X78377Y274362D02*
X78377Y273530D01*
X78379Y273402D01*
X78385Y273274D01*
X78395Y273146D01*
X78409Y273018D01*
X78426Y272891D01*
X78448Y272765D01*
X78473Y272639D01*
X78503Y272515D01*
X78536Y272391D01*
X78573Y272268D01*
X78614Y272146D01*
X78658Y272026D01*
X78706Y271907D01*
X78758Y271790D01*
X78813Y271674D01*
X78872Y271561D01*
X78935Y271449D01*
X79001Y271338D01*
X79070Y271231D01*
X79142Y271125D01*
X79218Y271021D01*
X79297Y270920D01*
X79379Y270821D01*
X79464Y270725D01*
X79551Y270632D01*
X79642Y270541D01*
X79735Y270454D01*
X79831Y270369D01*
X79930Y270287D01*
X80031Y270208D01*
X80135Y270132D01*
X80241Y270060D01*
X80348Y269991D01*
X80458Y269925D01*
X80571Y269862D01*
X80684Y269803D01*
X80800Y269748D01*
X80917Y269696D01*
X81036Y269648D01*
X81156Y269604D01*
X81278Y269563D01*
X81401Y269526D01*
X81525Y269493D01*
X81649Y269463D01*
X81775Y269438D01*
X81901Y269416D01*
X82028Y269399D01*
X82156Y269385D01*
X82284Y269375D01*
X82412Y269369D01*
X82540Y269367D01*
X82668Y269369D01*
X82796Y269375D01*
X82924Y269385D01*
X83052Y269399D01*
X83179Y269416D01*
X83305Y269438D01*
X83431Y269463D01*
X83555Y269493D01*
X83679Y269526D01*
X83802Y269563D01*
X83924Y269604D01*
X84044Y269648D01*
X84163Y269696D01*
X84280Y269748D01*
X84396Y269803D01*
X84509Y269862D01*
X84621Y269925D01*
X84732Y269991D01*
X84839Y270060D01*
X84945Y270132D01*
X85049Y270208D01*
X85150Y270287D01*
X85249Y270369D01*
X85345Y270454D01*
X85438Y270541D01*
X85529Y270632D01*
X85616Y270725D01*
X85701Y270821D01*
X85783Y270920D01*
X85862Y271021D01*
X85938Y271125D01*
X86010Y271231D01*
X86079Y271338D01*
X86145Y271449D01*
X86208Y271561D01*
X86267Y271674D01*
X86322Y271790D01*
X86374Y271907D01*
X86422Y272026D01*
X86466Y272146D01*
X86507Y272268D01*
X86544Y272391D01*
X86577Y272515D01*
X86607Y272639D01*
X86632Y272765D01*
X86654Y272891D01*
X86671Y273018D01*
X86685Y273146D01*
X86695Y273274D01*
X86701Y273402D01*
X86703Y273530D01*
X86703Y277693D01*
X86701Y277854D01*
X86695Y278015D01*
X86686Y278175D01*
X86672Y278336D01*
X86654Y278496D01*
X86633Y278655D01*
X86608Y278814D01*
X86579Y278973D01*
X86546Y279130D01*
X86509Y279287D01*
X86469Y279443D01*
X86425Y279597D01*
X86377Y279751D01*
X86325Y279904D01*
X86270Y280055D01*
X86211Y280204D01*
X86149Y280353D01*
X86083Y280500D01*
X86013Y280645D01*
X85940Y280788D01*
X85864Y280930D01*
X85784Y281069D01*
X85700Y281207D01*
X85614Y281343D01*
X85524Y281476D01*
X85431Y281608D01*
X85335Y281737D01*
X85236Y281863D01*
X85133Y281988D01*
X85028Y282109D01*
X84920Y282229D01*
X84809Y282345D01*
X84695Y282459D01*
X84579Y282570D01*
X84459Y282678D01*
X84338Y282783D01*
X84213Y282886D01*
X84087Y282985D01*
X83958Y283081D01*
X83826Y283174D01*
X83693Y283264D01*
X83557Y283350D01*
X83419Y283434D01*
X83280Y283514D01*
X83138Y283590D01*
X82995Y283663D01*
X82850Y283733D01*
X82703Y283799D01*
X82554Y283861D01*
X82405Y283920D01*
X82254Y283975D01*
X82101Y284027D01*
X81947Y284075D01*
X81793Y284119D01*
X81637Y284159D01*
X81480Y284196D01*
X81323Y284229D01*
X81164Y284258D01*
X81005Y284283D01*
X80846Y284304D01*
X80686Y284322D01*
X80525Y284336D01*
X80365Y284345D01*
X80204Y284351D01*
X80043Y284353D01*
X67742Y284353D02*
X71072Y272697D01*
X62746Y272697D01*
X65244Y276027D02*
X65244Y269367D01*
X49092Y277693D02*
X46594Y277693D01*
X46594Y269367D01*
X51589Y269367D01*
X51703Y269369D01*
X51816Y269375D01*
X51930Y269384D01*
X52042Y269398D01*
X52155Y269415D01*
X52267Y269437D01*
X52377Y269462D01*
X52487Y269490D01*
X52596Y269523D01*
X52704Y269559D01*
X52811Y269599D01*
X52916Y269643D01*
X53019Y269690D01*
X53121Y269740D01*
X53221Y269794D01*
X53319Y269852D01*
X53415Y269913D01*
X53509Y269976D01*
X53601Y270044D01*
X53691Y270114D01*
X53777Y270187D01*
X53862Y270263D01*
X53944Y270342D01*
X54023Y270424D01*
X54099Y270509D01*
X54172Y270595D01*
X54242Y270685D01*
X54310Y270777D01*
X54373Y270871D01*
X54434Y270967D01*
X54492Y271065D01*
X54546Y271165D01*
X54596Y271267D01*
X54643Y271370D01*
X54687Y271475D01*
X54727Y271582D01*
X54763Y271690D01*
X54796Y271799D01*
X54824Y271909D01*
X54849Y272020D01*
X54871Y272131D01*
X54888Y272244D01*
X54902Y272356D01*
X54911Y272470D01*
X54917Y272583D01*
X54919Y272697D01*
X54920Y272697D02*
X54920Y281023D01*
X54919Y281023D02*
X54917Y281137D01*
X54911Y281250D01*
X54902Y281364D01*
X54888Y281476D01*
X54871Y281589D01*
X54849Y281701D01*
X54824Y281811D01*
X54796Y281921D01*
X54763Y282030D01*
X54727Y282138D01*
X54687Y282245D01*
X54643Y282350D01*
X54596Y282453D01*
X54546Y282555D01*
X54492Y282655D01*
X54434Y282753D01*
X54373Y282849D01*
X54310Y282943D01*
X54242Y283035D01*
X54172Y283125D01*
X54099Y283211D01*
X54023Y283296D01*
X53944Y283378D01*
X53862Y283457D01*
X53778Y283533D01*
X53691Y283606D01*
X53601Y283676D01*
X53509Y283743D01*
X53415Y283807D01*
X53319Y283868D01*
X53221Y283926D01*
X53121Y283980D01*
X53019Y284030D01*
X52916Y284077D01*
X52811Y284121D01*
X52704Y284161D01*
X52596Y284197D01*
X52487Y284230D01*
X52377Y284258D01*
X52267Y284283D01*
X52155Y284305D01*
X52042Y284322D01*
X51930Y284336D01*
X51816Y284345D01*
X51703Y284351D01*
X51589Y284353D01*
X46594Y284353D01*
X35437Y276027D02*
X30442Y276027D01*
X35437Y276028D02*
X35551Y276030D01*
X35664Y276036D01*
X35778Y276045D01*
X35890Y276059D01*
X36003Y276076D01*
X36115Y276098D01*
X36225Y276123D01*
X36335Y276151D01*
X36444Y276184D01*
X36552Y276220D01*
X36659Y276260D01*
X36764Y276304D01*
X36867Y276351D01*
X36969Y276401D01*
X37069Y276455D01*
X37167Y276513D01*
X37263Y276574D01*
X37357Y276637D01*
X37449Y276705D01*
X37539Y276775D01*
X37625Y276848D01*
X37710Y276924D01*
X37792Y277003D01*
X37871Y277085D01*
X37947Y277170D01*
X38020Y277256D01*
X38090Y277346D01*
X38158Y277438D01*
X38221Y277532D01*
X38282Y277628D01*
X38340Y277726D01*
X38394Y277826D01*
X38444Y277928D01*
X38491Y278031D01*
X38535Y278136D01*
X38575Y278243D01*
X38611Y278351D01*
X38644Y278460D01*
X38672Y278570D01*
X38697Y278681D01*
X38719Y278792D01*
X38736Y278905D01*
X38750Y279017D01*
X38759Y279131D01*
X38765Y279244D01*
X38767Y279358D01*
X38767Y280190D01*
X38765Y280318D01*
X38759Y280446D01*
X38749Y280574D01*
X38735Y280702D01*
X38718Y280829D01*
X38696Y280955D01*
X38671Y281081D01*
X38641Y281205D01*
X38608Y281329D01*
X38571Y281452D01*
X38530Y281574D01*
X38486Y281694D01*
X38438Y281813D01*
X38386Y281930D01*
X38331Y282046D01*
X38272Y282159D01*
X38209Y282272D01*
X38143Y282382D01*
X38074Y282489D01*
X38002Y282595D01*
X37926Y282699D01*
X37847Y282800D01*
X37765Y282899D01*
X37680Y282995D01*
X37593Y283088D01*
X37502Y283179D01*
X37409Y283266D01*
X37313Y283351D01*
X37214Y283433D01*
X37113Y283512D01*
X37009Y283588D01*
X36903Y283660D01*
X36796Y283729D01*
X36686Y283795D01*
X36573Y283858D01*
X36460Y283917D01*
X36344Y283972D01*
X36227Y284024D01*
X36108Y284072D01*
X35988Y284116D01*
X35866Y284157D01*
X35743Y284194D01*
X35619Y284227D01*
X35495Y284257D01*
X35369Y284282D01*
X35243Y284304D01*
X35116Y284321D01*
X34988Y284335D01*
X34860Y284345D01*
X34732Y284351D01*
X34604Y284353D01*
X34476Y284351D01*
X34348Y284345D01*
X34220Y284335D01*
X34092Y284321D01*
X33965Y284304D01*
X33839Y284282D01*
X33713Y284257D01*
X33589Y284227D01*
X33465Y284194D01*
X33342Y284157D01*
X33220Y284116D01*
X33100Y284072D01*
X32981Y284024D01*
X32864Y283972D01*
X32748Y283917D01*
X32635Y283858D01*
X32523Y283795D01*
X32412Y283729D01*
X32305Y283660D01*
X32199Y283588D01*
X32095Y283512D01*
X31994Y283433D01*
X31895Y283351D01*
X31799Y283266D01*
X31706Y283179D01*
X31615Y283088D01*
X31528Y282995D01*
X31443Y282899D01*
X31361Y282800D01*
X31282Y282699D01*
X31206Y282595D01*
X31134Y282489D01*
X31065Y282382D01*
X30999Y282272D01*
X30936Y282159D01*
X30877Y282046D01*
X30822Y281930D01*
X30770Y281813D01*
X30722Y281694D01*
X30678Y281574D01*
X30637Y281452D01*
X30600Y281329D01*
X30567Y281205D01*
X30537Y281081D01*
X30512Y280955D01*
X30490Y280829D01*
X30473Y280702D01*
X30459Y280574D01*
X30449Y280446D01*
X30443Y280318D01*
X30441Y280190D01*
X30442Y280190D02*
X30442Y276027D01*
X30444Y275866D01*
X30450Y275705D01*
X30459Y275545D01*
X30473Y275384D01*
X30491Y275224D01*
X30512Y275065D01*
X30537Y274906D01*
X30566Y274747D01*
X30599Y274590D01*
X30636Y274433D01*
X30676Y274277D01*
X30720Y274123D01*
X30768Y273969D01*
X30820Y273816D01*
X30875Y273665D01*
X30934Y273516D01*
X30996Y273367D01*
X31062Y273220D01*
X31132Y273075D01*
X31205Y272932D01*
X31281Y272790D01*
X31361Y272651D01*
X31445Y272513D01*
X31531Y272377D01*
X31621Y272244D01*
X31714Y272112D01*
X31810Y271983D01*
X31909Y271857D01*
X32012Y271732D01*
X32117Y271611D01*
X32225Y271491D01*
X32336Y271375D01*
X32450Y271261D01*
X32566Y271150D01*
X32686Y271042D01*
X32807Y270937D01*
X32932Y270834D01*
X33058Y270735D01*
X33187Y270639D01*
X33319Y270546D01*
X33452Y270456D01*
X33588Y270370D01*
X33726Y270286D01*
X33865Y270206D01*
X34007Y270130D01*
X34150Y270057D01*
X34295Y269987D01*
X34442Y269921D01*
X34591Y269859D01*
X34740Y269800D01*
X34891Y269745D01*
X35044Y269693D01*
X35198Y269645D01*
X35352Y269601D01*
X35508Y269561D01*
X35665Y269524D01*
X35822Y269491D01*
X35981Y269462D01*
X36140Y269437D01*
X36299Y269416D01*
X36459Y269398D01*
X36620Y269384D01*
X36780Y269375D01*
X36941Y269369D01*
X37102Y269367D01*
X78377Y253937D02*
X78379Y254057D01*
X78385Y254177D01*
X78394Y254297D01*
X78408Y254416D01*
X78425Y254535D01*
X78446Y254653D01*
X78471Y254771D01*
X78500Y254887D01*
X78532Y255003D01*
X78568Y255118D01*
X78608Y255231D01*
X78651Y255343D01*
X78698Y255454D01*
X78748Y255563D01*
X78802Y255670D01*
X78859Y255776D01*
X78920Y255879D01*
X78984Y255981D01*
X79051Y256081D01*
X79121Y256178D01*
X79194Y256273D01*
X79271Y256366D01*
X79350Y256456D01*
X79432Y256544D01*
X79517Y256629D01*
X79605Y256711D01*
X79695Y256790D01*
X79788Y256867D01*
X79883Y256940D01*
X79980Y257010D01*
X80080Y257077D01*
X80182Y257141D01*
X80285Y257202D01*
X80391Y257259D01*
X80498Y257313D01*
X80607Y257363D01*
X80718Y257410D01*
X80830Y257453D01*
X80943Y257493D01*
X81058Y257529D01*
X81174Y257561D01*
X81290Y257590D01*
X81408Y257615D01*
X81526Y257636D01*
X81645Y257653D01*
X81764Y257667D01*
X81884Y257676D01*
X82004Y257682D01*
X82124Y257684D01*
X82124Y257683D02*
X82262Y257681D01*
X82399Y257675D01*
X82536Y257665D01*
X82673Y257652D01*
X82809Y257634D01*
X82945Y257612D01*
X83081Y257587D01*
X83215Y257558D01*
X83348Y257525D01*
X83481Y257488D01*
X83612Y257447D01*
X83743Y257403D01*
X83871Y257355D01*
X83999Y257303D01*
X84125Y257247D01*
X84249Y257188D01*
X84372Y257126D01*
X84492Y257060D01*
X84611Y256991D01*
X84728Y256918D01*
X84843Y256842D01*
X84955Y256762D01*
X85065Y256680D01*
X85173Y256594D01*
X85278Y256506D01*
X85380Y256414D01*
X85480Y256320D01*
X85578Y256222D01*
X85672Y256122D01*
X85764Y256019D01*
X85852Y255914D01*
X85937Y255806D01*
X86020Y255696D01*
X86099Y255584D01*
X86175Y255469D01*
X86248Y255352D01*
X86317Y255233D01*
X86383Y255113D01*
X86445Y254990D01*
X86504Y254866D01*
X86559Y254740D01*
X86611Y254612D01*
X86659Y254483D01*
X86703Y254353D01*
X79627Y251023D02*
X79537Y251111D01*
X79451Y251202D01*
X79367Y251295D01*
X79286Y251391D01*
X79208Y251489D01*
X79134Y251589D01*
X79062Y251692D01*
X78994Y251797D01*
X78929Y251905D01*
X78867Y252014D01*
X78809Y252125D01*
X78754Y252238D01*
X78703Y252352D01*
X78656Y252468D01*
X78612Y252585D01*
X78572Y252704D01*
X78535Y252824D01*
X78502Y252945D01*
X78473Y253067D01*
X78448Y253189D01*
X78427Y253313D01*
X78409Y253437D01*
X78396Y253562D01*
X78386Y253687D01*
X78380Y253812D01*
X78378Y253937D01*
X79626Y251023D02*
X86703Y242697D01*
X78377Y242697D01*
X71072Y250190D02*
X71068Y250485D01*
X71058Y250779D01*
X71040Y251074D01*
X71016Y251368D01*
X70984Y251661D01*
X70946Y251953D01*
X70900Y252244D01*
X70847Y252534D01*
X70788Y252823D01*
X70722Y253110D01*
X70649Y253396D01*
X70569Y253680D01*
X70482Y253962D01*
X70389Y254241D01*
X70289Y254519D01*
X70182Y254793D01*
X70069Y255066D01*
X69949Y255335D01*
X69823Y255602D01*
X69785Y255705D01*
X69744Y255806D01*
X69700Y255905D01*
X69652Y256004D01*
X69601Y256100D01*
X69546Y256194D01*
X69488Y256287D01*
X69427Y256377D01*
X69362Y256465D01*
X69295Y256551D01*
X69224Y256634D01*
X69151Y256715D01*
X69075Y256793D01*
X68996Y256869D01*
X68914Y256941D01*
X68830Y257011D01*
X68743Y257077D01*
X68655Y257141D01*
X68564Y257201D01*
X68470Y257258D01*
X68375Y257312D01*
X68278Y257362D01*
X68180Y257409D01*
X68080Y257452D01*
X67978Y257492D01*
X67875Y257528D01*
X67771Y257560D01*
X67665Y257589D01*
X67559Y257614D01*
X67452Y257635D01*
X67344Y257652D01*
X67236Y257666D01*
X67127Y257675D01*
X67018Y257681D01*
X66909Y257683D01*
X66800Y257681D01*
X66691Y257675D01*
X66582Y257666D01*
X66474Y257652D01*
X66366Y257635D01*
X66259Y257614D01*
X66152Y257589D01*
X66047Y257560D01*
X65943Y257528D01*
X65840Y257492D01*
X65738Y257452D01*
X65638Y257409D01*
X65539Y257362D01*
X65442Y257311D01*
X65347Y257258D01*
X65254Y257201D01*
X65163Y257140D01*
X65074Y257077D01*
X64988Y257010D01*
X64903Y256941D01*
X64822Y256868D01*
X64743Y256793D01*
X64667Y256715D01*
X64593Y256634D01*
X64523Y256551D01*
X64455Y256465D01*
X64390Y256377D01*
X64329Y256286D01*
X64271Y256194D01*
X64216Y256099D01*
X64165Y256003D01*
X64117Y255905D01*
X64073Y255805D01*
X64032Y255704D01*
X63995Y255601D01*
X63995Y255602D02*
X63869Y255335D01*
X63749Y255066D01*
X63636Y254793D01*
X63529Y254519D01*
X63429Y254241D01*
X63336Y253962D01*
X63249Y253680D01*
X63169Y253396D01*
X63096Y253110D01*
X63030Y252823D01*
X62971Y252534D01*
X62918Y252244D01*
X62872Y251953D01*
X62834Y251661D01*
X62802Y251368D01*
X62778Y251074D01*
X62760Y250779D01*
X62750Y250485D01*
X62746Y250190D01*
X71072Y250190D02*
X71068Y249895D01*
X71058Y249601D01*
X71040Y249306D01*
X71016Y249012D01*
X70984Y248719D01*
X70946Y248427D01*
X70900Y248136D01*
X70847Y247846D01*
X70788Y247557D01*
X70722Y247270D01*
X70649Y246984D01*
X70569Y246700D01*
X70482Y246418D01*
X70389Y246139D01*
X70289Y245861D01*
X70182Y245587D01*
X70069Y245314D01*
X69949Y245045D01*
X69823Y244778D01*
X69785Y244675D01*
X69744Y244574D01*
X69700Y244475D01*
X69652Y244376D01*
X69601Y244280D01*
X69546Y244186D01*
X69488Y244093D01*
X69427Y244003D01*
X69362Y243915D01*
X69295Y243829D01*
X69224Y243746D01*
X69151Y243665D01*
X69075Y243587D01*
X68996Y243511D01*
X68914Y243439D01*
X68830Y243369D01*
X68743Y243303D01*
X68655Y243239D01*
X68564Y243179D01*
X68470Y243122D01*
X68375Y243068D01*
X68278Y243018D01*
X68180Y242971D01*
X68080Y242928D01*
X67978Y242888D01*
X67875Y242852D01*
X67771Y242820D01*
X67665Y242791D01*
X67559Y242766D01*
X67452Y242745D01*
X67344Y242728D01*
X67236Y242714D01*
X67127Y242705D01*
X67018Y242699D01*
X66909Y242697D01*
X63995Y244778D02*
X63869Y245045D01*
X63749Y245314D01*
X63636Y245587D01*
X63529Y245861D01*
X63429Y246139D01*
X63336Y246418D01*
X63249Y246700D01*
X63169Y246984D01*
X63096Y247270D01*
X63030Y247557D01*
X62971Y247846D01*
X62918Y248136D01*
X62872Y248427D01*
X62834Y248719D01*
X62802Y249012D01*
X62778Y249306D01*
X62760Y249601D01*
X62750Y249895D01*
X62746Y250190D01*
X63995Y244779D02*
X64032Y244676D01*
X64073Y244575D01*
X64117Y244475D01*
X64165Y244377D01*
X64216Y244281D01*
X64271Y244186D01*
X64329Y244094D01*
X64390Y244003D01*
X64455Y243915D01*
X64523Y243829D01*
X64593Y243746D01*
X64667Y243665D01*
X64743Y243587D01*
X64822Y243512D01*
X64903Y243439D01*
X64988Y243370D01*
X65074Y243303D01*
X65163Y243240D01*
X65254Y243179D01*
X65347Y243122D01*
X65442Y243069D01*
X65539Y243018D01*
X65638Y242971D01*
X65738Y242928D01*
X65840Y242888D01*
X65943Y242852D01*
X66047Y242820D01*
X66152Y242791D01*
X66259Y242766D01*
X66366Y242745D01*
X66474Y242728D01*
X66582Y242714D01*
X66691Y242705D01*
X66800Y242699D01*
X66909Y242697D01*
X70239Y246027D02*
X63579Y254353D01*
X50862Y257684D02*
X50742Y257682D01*
X50622Y257676D01*
X50502Y257667D01*
X50383Y257653D01*
X50264Y257636D01*
X50146Y257615D01*
X50028Y257590D01*
X49912Y257561D01*
X49796Y257529D01*
X49681Y257493D01*
X49568Y257453D01*
X49456Y257410D01*
X49345Y257363D01*
X49236Y257313D01*
X49129Y257259D01*
X49023Y257202D01*
X48920Y257141D01*
X48818Y257077D01*
X48718Y257010D01*
X48621Y256940D01*
X48526Y256867D01*
X48433Y256790D01*
X48343Y256711D01*
X48255Y256629D01*
X48170Y256544D01*
X48088Y256456D01*
X48009Y256366D01*
X47932Y256273D01*
X47859Y256178D01*
X47789Y256081D01*
X47722Y255981D01*
X47658Y255879D01*
X47597Y255776D01*
X47540Y255670D01*
X47486Y255563D01*
X47436Y255454D01*
X47389Y255343D01*
X47346Y255231D01*
X47306Y255118D01*
X47270Y255003D01*
X47238Y254887D01*
X47209Y254771D01*
X47184Y254653D01*
X47163Y254535D01*
X47146Y254416D01*
X47132Y254297D01*
X47123Y254177D01*
X47117Y254057D01*
X47115Y253937D01*
X50862Y257683D02*
X51000Y257681D01*
X51137Y257675D01*
X51274Y257665D01*
X51411Y257652D01*
X51547Y257634D01*
X51683Y257612D01*
X51819Y257587D01*
X51953Y257558D01*
X52086Y257525D01*
X52219Y257488D01*
X52350Y257447D01*
X52481Y257403D01*
X52609Y257355D01*
X52737Y257303D01*
X52863Y257247D01*
X52987Y257188D01*
X53110Y257126D01*
X53230Y257060D01*
X53349Y256991D01*
X53466Y256918D01*
X53581Y256842D01*
X53693Y256762D01*
X53803Y256680D01*
X53911Y256594D01*
X54016Y256506D01*
X54118Y256414D01*
X54218Y256320D01*
X54316Y256222D01*
X54410Y256122D01*
X54502Y256019D01*
X54590Y255914D01*
X54675Y255806D01*
X54758Y255696D01*
X54837Y255584D01*
X54913Y255469D01*
X54986Y255352D01*
X55055Y255233D01*
X55121Y255113D01*
X55183Y254990D01*
X55242Y254866D01*
X55297Y254740D01*
X55349Y254612D01*
X55397Y254483D01*
X55441Y254353D01*
X48364Y251023D02*
X48274Y251111D01*
X48188Y251202D01*
X48104Y251295D01*
X48023Y251391D01*
X47945Y251489D01*
X47871Y251589D01*
X47799Y251692D01*
X47731Y251797D01*
X47666Y251905D01*
X47604Y252014D01*
X47546Y252125D01*
X47491Y252238D01*
X47440Y252352D01*
X47393Y252468D01*
X47349Y252585D01*
X47309Y252704D01*
X47272Y252824D01*
X47239Y252945D01*
X47210Y253067D01*
X47185Y253189D01*
X47164Y253313D01*
X47146Y253437D01*
X47133Y253562D01*
X47123Y253687D01*
X47117Y253812D01*
X47115Y253937D01*
X48364Y251023D02*
X55441Y242697D01*
X47115Y242697D01*
X39809Y246027D02*
X36479Y257683D01*
X39809Y246027D02*
X31484Y246027D01*
X33981Y249357D02*
X33981Y242697D01*
D11*
X114300Y101600D03*
X88900Y101600D03*
D12*
X165100Y139700D03*
X190500Y139700D03*
D13*
X165100Y165100D03*
X190500Y165100D03*
X190500Y241300D03*
X165100Y241300D03*
X215900Y165100D03*
X241300Y165100D03*
X215900Y241300D03*
X241300Y241300D03*
D14*
X254000Y114300D03*
X215900Y114300D03*
D15*
X114300Y177800D03*
X114300Y215900D03*
D16*
X152400Y101600D03*
X190500Y101600D03*
D17*
X190500Y259080D02*
X190500Y274320D01*
X165100Y274320D02*
X165100Y259080D01*
X58420Y101600D02*
X43180Y101600D01*
X43180Y127000D02*
X58420Y127000D01*
X254000Y83820D02*
X254000Y68580D01*
X279400Y68580D02*
X279400Y83820D01*
X271780Y215900D02*
X287020Y215900D01*
X287020Y190500D02*
X271780Y190500D01*
D18*
X215900Y190500D02*
X215900Y165100D01*
X215900Y190500D02*
X279400Y190500D01*
X215900Y165100D02*
X215900Y139700D01*
X279400Y139700D02*
X279400Y76200D01*
X279400Y139700D02*
X215900Y139700D01*
X165100Y266700D02*
X165100Y292100D01*
X304800Y292100D01*
X304800Y190500D01*
X279400Y190500D01*
X88900Y101600D02*
X50800Y101600D01*
X88900Y101600D02*
X88900Y50800D01*
X279400Y50800D01*
X279400Y76200D01*
X152400Y76200D02*
X152400Y101600D01*
X152400Y76200D02*
X215900Y76200D01*
X215900Y114300D01*
X114300Y101600D02*
X114300Y76200D01*
X152400Y76200D01*
X114300Y101600D02*
X114300Y177800D01*
X190500Y241300D02*
X190500Y266700D01*
X50800Y127000D02*
X25400Y127000D01*
X25400Y25400D01*
X241300Y165100D02*
X304800Y165100D01*
X304800Y25400D01*
X25400Y25400D01*
X190500Y139700D02*
X190500Y165100D01*
X190500Y139700D02*
X190500Y101600D01*
X254000Y114300D02*
X254000Y76200D01*
X215900Y215900D02*
X215900Y241300D01*
X215900Y215900D02*
X279400Y215900D01*
X165100Y139700D02*
X139700Y139700D01*
X139700Y215900D01*
X114300Y215900D01*
X139700Y215900D02*
X215900Y215900D01*
D19*
X0Y0D02*
X340000Y0D01*
X340000Y320000D01*
X0Y320000D01*
X0Y0D01*
M02*
