G04 EAGLE Gerber RS-274X export*
G75*
%MOMM*%
%FSLAX34Y34*%
%LPD*%
%INSilkscreen Top*%
%IPPOS*%
%AMOC8*
5,1,8,0,0,1.08239X$1,22.5*%
G01*
%ADD10C,0.152400*%
%ADD11C,0.254000*%
%ADD12C,0.127000*%
%ADD13R,1.676400X0.762000*%
%ADD14R,0.762000X1.676400*%


D10*
X123190Y88900D02*
X80010Y88900D01*
X80010Y114300D02*
X123190Y114300D01*
X77470Y111760D02*
X77470Y91440D01*
X125730Y91440D02*
X125730Y111760D01*
X80010Y88900D02*
X79910Y88902D01*
X79811Y88908D01*
X79711Y88918D01*
X79613Y88931D01*
X79514Y88949D01*
X79417Y88970D01*
X79321Y88995D01*
X79225Y89024D01*
X79131Y89057D01*
X79038Y89093D01*
X78947Y89133D01*
X78857Y89177D01*
X78769Y89224D01*
X78683Y89274D01*
X78599Y89328D01*
X78517Y89385D01*
X78438Y89445D01*
X78360Y89509D01*
X78286Y89575D01*
X78214Y89644D01*
X78145Y89716D01*
X78079Y89790D01*
X78015Y89868D01*
X77955Y89947D01*
X77898Y90029D01*
X77844Y90113D01*
X77794Y90199D01*
X77747Y90287D01*
X77703Y90377D01*
X77663Y90468D01*
X77627Y90561D01*
X77594Y90655D01*
X77565Y90751D01*
X77540Y90847D01*
X77519Y90944D01*
X77501Y91043D01*
X77488Y91141D01*
X77478Y91241D01*
X77472Y91340D01*
X77470Y91440D01*
X123190Y88900D02*
X123290Y88902D01*
X123389Y88908D01*
X123489Y88918D01*
X123587Y88931D01*
X123686Y88949D01*
X123783Y88970D01*
X123879Y88995D01*
X123975Y89024D01*
X124069Y89057D01*
X124162Y89093D01*
X124253Y89133D01*
X124343Y89177D01*
X124431Y89224D01*
X124517Y89274D01*
X124601Y89328D01*
X124683Y89385D01*
X124762Y89445D01*
X124840Y89509D01*
X124914Y89575D01*
X124986Y89644D01*
X125055Y89716D01*
X125121Y89790D01*
X125185Y89868D01*
X125245Y89947D01*
X125302Y90029D01*
X125356Y90113D01*
X125406Y90199D01*
X125453Y90287D01*
X125497Y90377D01*
X125537Y90468D01*
X125573Y90561D01*
X125606Y90655D01*
X125635Y90751D01*
X125660Y90847D01*
X125681Y90944D01*
X125699Y91043D01*
X125712Y91141D01*
X125722Y91241D01*
X125728Y91340D01*
X125730Y91440D01*
X80010Y114300D02*
X79910Y114298D01*
X79811Y114292D01*
X79711Y114282D01*
X79613Y114269D01*
X79514Y114251D01*
X79417Y114230D01*
X79321Y114205D01*
X79225Y114176D01*
X79131Y114143D01*
X79038Y114107D01*
X78947Y114067D01*
X78857Y114023D01*
X78769Y113976D01*
X78683Y113926D01*
X78599Y113872D01*
X78517Y113815D01*
X78438Y113755D01*
X78360Y113691D01*
X78286Y113625D01*
X78214Y113556D01*
X78145Y113484D01*
X78079Y113410D01*
X78015Y113332D01*
X77955Y113253D01*
X77898Y113171D01*
X77844Y113087D01*
X77794Y113001D01*
X77747Y112913D01*
X77703Y112823D01*
X77663Y112732D01*
X77627Y112639D01*
X77594Y112545D01*
X77565Y112449D01*
X77540Y112353D01*
X77519Y112256D01*
X77501Y112157D01*
X77488Y112059D01*
X77478Y111959D01*
X77472Y111860D01*
X77470Y111760D01*
X123190Y114300D02*
X123290Y114298D01*
X123389Y114292D01*
X123489Y114282D01*
X123587Y114269D01*
X123686Y114251D01*
X123783Y114230D01*
X123879Y114205D01*
X123975Y114176D01*
X124069Y114143D01*
X124162Y114107D01*
X124253Y114067D01*
X124343Y114023D01*
X124431Y113976D01*
X124517Y113926D01*
X124601Y113872D01*
X124683Y113815D01*
X124762Y113755D01*
X124840Y113691D01*
X124914Y113625D01*
X124986Y113556D01*
X125055Y113484D01*
X125121Y113410D01*
X125185Y113332D01*
X125245Y113253D01*
X125302Y113171D01*
X125356Y113087D01*
X125406Y113001D01*
X125453Y112913D01*
X125497Y112823D01*
X125537Y112732D01*
X125573Y112639D01*
X125606Y112545D01*
X125635Y112449D01*
X125660Y112353D01*
X125681Y112256D01*
X125699Y112157D01*
X125712Y112059D01*
X125722Y111959D01*
X125728Y111860D01*
X125730Y111760D01*
X99060Y101600D02*
X97790Y101600D01*
D11*
X99060Y101600D02*
X99060Y93980D01*
X99060Y101600D02*
X99060Y109220D01*
X104140Y101600D02*
X104140Y93980D01*
X104140Y101600D02*
X104140Y109220D01*
D10*
X104140Y101600D02*
X105410Y101600D01*
D12*
X110453Y74295D02*
X112993Y74295D01*
X110453Y74295D02*
X110353Y74297D01*
X110254Y74303D01*
X110154Y74313D01*
X110056Y74326D01*
X109957Y74344D01*
X109860Y74365D01*
X109764Y74390D01*
X109668Y74419D01*
X109574Y74452D01*
X109481Y74488D01*
X109390Y74528D01*
X109300Y74572D01*
X109212Y74619D01*
X109126Y74669D01*
X109042Y74723D01*
X108960Y74780D01*
X108881Y74840D01*
X108803Y74904D01*
X108729Y74970D01*
X108657Y75039D01*
X108588Y75111D01*
X108522Y75185D01*
X108458Y75263D01*
X108398Y75342D01*
X108341Y75424D01*
X108287Y75508D01*
X108237Y75594D01*
X108190Y75682D01*
X108146Y75772D01*
X108106Y75863D01*
X108070Y75956D01*
X108037Y76050D01*
X108008Y76146D01*
X107983Y76242D01*
X107962Y76339D01*
X107944Y76438D01*
X107931Y76536D01*
X107921Y76636D01*
X107915Y76735D01*
X107913Y76835D01*
X107913Y83185D01*
X107915Y83285D01*
X107921Y83384D01*
X107931Y83484D01*
X107944Y83582D01*
X107962Y83681D01*
X107983Y83778D01*
X108008Y83874D01*
X108037Y83970D01*
X108070Y84064D01*
X108106Y84157D01*
X108146Y84248D01*
X108190Y84338D01*
X108237Y84426D01*
X108287Y84512D01*
X108341Y84596D01*
X108398Y84678D01*
X108458Y84757D01*
X108522Y84835D01*
X108588Y84909D01*
X108657Y84981D01*
X108729Y85050D01*
X108803Y85116D01*
X108881Y85180D01*
X108960Y85240D01*
X109042Y85297D01*
X109126Y85351D01*
X109212Y85401D01*
X109300Y85448D01*
X109390Y85492D01*
X109481Y85532D01*
X109574Y85568D01*
X109668Y85601D01*
X109764Y85630D01*
X109860Y85655D01*
X109957Y85676D01*
X110056Y85694D01*
X110154Y85707D01*
X110254Y85717D01*
X110353Y85723D01*
X110453Y85725D01*
X112993Y85725D01*
X117475Y83185D02*
X120650Y85725D01*
X120650Y74295D01*
X117475Y74295D02*
X123825Y74295D01*
D10*
X156210Y152400D02*
X199390Y152400D01*
X199390Y127000D02*
X156210Y127000D01*
X201930Y129540D02*
X201930Y149860D01*
X153670Y149860D02*
X153670Y129540D01*
X199390Y152400D02*
X199490Y152398D01*
X199589Y152392D01*
X199689Y152382D01*
X199787Y152369D01*
X199886Y152351D01*
X199983Y152330D01*
X200079Y152305D01*
X200175Y152276D01*
X200269Y152243D01*
X200362Y152207D01*
X200453Y152167D01*
X200543Y152123D01*
X200631Y152076D01*
X200717Y152026D01*
X200801Y151972D01*
X200883Y151915D01*
X200962Y151855D01*
X201040Y151791D01*
X201114Y151725D01*
X201186Y151656D01*
X201255Y151584D01*
X201321Y151510D01*
X201385Y151432D01*
X201445Y151353D01*
X201502Y151271D01*
X201556Y151187D01*
X201606Y151101D01*
X201653Y151013D01*
X201697Y150923D01*
X201737Y150832D01*
X201773Y150739D01*
X201806Y150645D01*
X201835Y150549D01*
X201860Y150453D01*
X201881Y150356D01*
X201899Y150257D01*
X201912Y150159D01*
X201922Y150059D01*
X201928Y149960D01*
X201930Y149860D01*
X156210Y152400D02*
X156110Y152398D01*
X156011Y152392D01*
X155911Y152382D01*
X155813Y152369D01*
X155714Y152351D01*
X155617Y152330D01*
X155521Y152305D01*
X155425Y152276D01*
X155331Y152243D01*
X155238Y152207D01*
X155147Y152167D01*
X155057Y152123D01*
X154969Y152076D01*
X154883Y152026D01*
X154799Y151972D01*
X154717Y151915D01*
X154638Y151855D01*
X154560Y151791D01*
X154486Y151725D01*
X154414Y151656D01*
X154345Y151584D01*
X154279Y151510D01*
X154215Y151432D01*
X154155Y151353D01*
X154098Y151271D01*
X154044Y151187D01*
X153994Y151101D01*
X153947Y151013D01*
X153903Y150923D01*
X153863Y150832D01*
X153827Y150739D01*
X153794Y150645D01*
X153765Y150549D01*
X153740Y150453D01*
X153719Y150356D01*
X153701Y150257D01*
X153688Y150159D01*
X153678Y150059D01*
X153672Y149960D01*
X153670Y149860D01*
X199390Y127000D02*
X199490Y127002D01*
X199589Y127008D01*
X199689Y127018D01*
X199787Y127031D01*
X199886Y127049D01*
X199983Y127070D01*
X200079Y127095D01*
X200175Y127124D01*
X200269Y127157D01*
X200362Y127193D01*
X200453Y127233D01*
X200543Y127277D01*
X200631Y127324D01*
X200717Y127374D01*
X200801Y127428D01*
X200883Y127485D01*
X200962Y127545D01*
X201040Y127609D01*
X201114Y127675D01*
X201186Y127744D01*
X201255Y127816D01*
X201321Y127890D01*
X201385Y127968D01*
X201445Y128047D01*
X201502Y128129D01*
X201556Y128213D01*
X201606Y128299D01*
X201653Y128387D01*
X201697Y128477D01*
X201737Y128568D01*
X201773Y128661D01*
X201806Y128755D01*
X201835Y128851D01*
X201860Y128947D01*
X201881Y129044D01*
X201899Y129143D01*
X201912Y129241D01*
X201922Y129341D01*
X201928Y129440D01*
X201930Y129540D01*
X156210Y127000D02*
X156110Y127002D01*
X156011Y127008D01*
X155911Y127018D01*
X155813Y127031D01*
X155714Y127049D01*
X155617Y127070D01*
X155521Y127095D01*
X155425Y127124D01*
X155331Y127157D01*
X155238Y127193D01*
X155147Y127233D01*
X155057Y127277D01*
X154969Y127324D01*
X154883Y127374D01*
X154799Y127428D01*
X154717Y127485D01*
X154638Y127545D01*
X154560Y127609D01*
X154486Y127675D01*
X154414Y127744D01*
X154345Y127816D01*
X154279Y127890D01*
X154215Y127968D01*
X154155Y128047D01*
X154098Y128129D01*
X154044Y128213D01*
X153994Y128299D01*
X153947Y128387D01*
X153903Y128477D01*
X153863Y128568D01*
X153827Y128661D01*
X153794Y128755D01*
X153765Y128851D01*
X153740Y128947D01*
X153719Y129044D01*
X153701Y129143D01*
X153688Y129241D01*
X153678Y129341D01*
X153672Y129440D01*
X153670Y129540D01*
X180340Y139700D02*
X181610Y139700D01*
D11*
X180340Y139700D02*
X180340Y147320D01*
X180340Y139700D02*
X180340Y132080D01*
X175260Y139700D02*
X175260Y147320D01*
X175260Y139700D02*
X175260Y132080D01*
D10*
X175260Y139700D02*
X173990Y139700D01*
D12*
X160655Y155575D02*
X158115Y155575D01*
X158015Y155577D01*
X157916Y155583D01*
X157816Y155593D01*
X157718Y155606D01*
X157619Y155624D01*
X157522Y155645D01*
X157426Y155670D01*
X157330Y155699D01*
X157236Y155732D01*
X157143Y155768D01*
X157052Y155808D01*
X156962Y155852D01*
X156874Y155899D01*
X156788Y155949D01*
X156704Y156003D01*
X156622Y156060D01*
X156543Y156120D01*
X156465Y156184D01*
X156391Y156250D01*
X156319Y156319D01*
X156250Y156391D01*
X156184Y156465D01*
X156120Y156543D01*
X156060Y156622D01*
X156003Y156704D01*
X155949Y156788D01*
X155899Y156874D01*
X155852Y156962D01*
X155808Y157052D01*
X155768Y157143D01*
X155732Y157236D01*
X155699Y157330D01*
X155670Y157426D01*
X155645Y157522D01*
X155624Y157619D01*
X155606Y157718D01*
X155593Y157816D01*
X155583Y157916D01*
X155577Y158015D01*
X155575Y158115D01*
X155575Y164465D01*
X155577Y164565D01*
X155583Y164664D01*
X155593Y164764D01*
X155606Y164862D01*
X155624Y164961D01*
X155645Y165058D01*
X155670Y165154D01*
X155699Y165250D01*
X155732Y165344D01*
X155768Y165437D01*
X155808Y165528D01*
X155852Y165618D01*
X155899Y165706D01*
X155949Y165792D01*
X156003Y165876D01*
X156060Y165958D01*
X156120Y166037D01*
X156184Y166115D01*
X156250Y166189D01*
X156319Y166261D01*
X156391Y166330D01*
X156465Y166396D01*
X156543Y166460D01*
X156622Y166520D01*
X156704Y166577D01*
X156788Y166631D01*
X156874Y166681D01*
X156962Y166728D01*
X157052Y166772D01*
X157143Y166812D01*
X157236Y166848D01*
X157330Y166881D01*
X157426Y166910D01*
X157522Y166935D01*
X157619Y166956D01*
X157718Y166974D01*
X157816Y166987D01*
X157916Y166997D01*
X158015Y167003D01*
X158115Y167005D01*
X160655Y167005D01*
X168630Y167006D02*
X168734Y167004D01*
X168839Y166998D01*
X168943Y166989D01*
X169046Y166976D01*
X169149Y166958D01*
X169251Y166938D01*
X169353Y166913D01*
X169453Y166885D01*
X169553Y166853D01*
X169651Y166817D01*
X169748Y166778D01*
X169843Y166736D01*
X169937Y166690D01*
X170029Y166640D01*
X170119Y166588D01*
X170207Y166532D01*
X170293Y166472D01*
X170377Y166410D01*
X170458Y166345D01*
X170537Y166277D01*
X170614Y166205D01*
X170687Y166132D01*
X170759Y166055D01*
X170827Y165976D01*
X170892Y165895D01*
X170954Y165811D01*
X171014Y165725D01*
X171070Y165637D01*
X171122Y165547D01*
X171172Y165455D01*
X171218Y165361D01*
X171260Y165266D01*
X171299Y165169D01*
X171335Y165071D01*
X171367Y164971D01*
X171395Y164871D01*
X171420Y164769D01*
X171440Y164667D01*
X171458Y164564D01*
X171471Y164461D01*
X171480Y164357D01*
X171486Y164252D01*
X171488Y164148D01*
X168630Y167005D02*
X168512Y167003D01*
X168393Y166997D01*
X168275Y166988D01*
X168158Y166975D01*
X168041Y166957D01*
X167924Y166937D01*
X167808Y166912D01*
X167693Y166884D01*
X167580Y166851D01*
X167467Y166816D01*
X167355Y166776D01*
X167245Y166734D01*
X167136Y166687D01*
X167028Y166637D01*
X166923Y166584D01*
X166819Y166527D01*
X166717Y166467D01*
X166617Y166404D01*
X166519Y166337D01*
X166423Y166268D01*
X166330Y166195D01*
X166239Y166119D01*
X166150Y166041D01*
X166064Y165959D01*
X165981Y165875D01*
X165900Y165789D01*
X165823Y165699D01*
X165748Y165608D01*
X165676Y165514D01*
X165607Y165417D01*
X165542Y165319D01*
X165479Y165218D01*
X165420Y165115D01*
X165364Y165011D01*
X165312Y164905D01*
X165263Y164797D01*
X165218Y164688D01*
X165176Y164577D01*
X165138Y164465D01*
X170535Y161926D02*
X170611Y162001D01*
X170686Y162080D01*
X170757Y162161D01*
X170826Y162245D01*
X170891Y162331D01*
X170953Y162419D01*
X171013Y162509D01*
X171069Y162601D01*
X171122Y162696D01*
X171171Y162792D01*
X171217Y162890D01*
X171260Y162989D01*
X171299Y163090D01*
X171334Y163192D01*
X171366Y163295D01*
X171394Y163399D01*
X171419Y163504D01*
X171440Y163611D01*
X171457Y163717D01*
X171470Y163824D01*
X171479Y163932D01*
X171485Y164040D01*
X171487Y164148D01*
X170535Y161925D02*
X165137Y155575D01*
X171487Y155575D01*
D10*
X152400Y232410D02*
X254000Y232410D01*
X254000Y173990D02*
X152400Y173990D01*
X254000Y173990D02*
X254000Y232410D01*
X152400Y232410D02*
X152400Y213360D01*
X152400Y193040D02*
X152400Y173990D01*
X152400Y193040D02*
X152647Y193043D01*
X152895Y193052D01*
X153142Y193067D01*
X153388Y193088D01*
X153634Y193115D01*
X153879Y193148D01*
X154124Y193187D01*
X154367Y193232D01*
X154609Y193283D01*
X154850Y193340D01*
X155089Y193402D01*
X155327Y193471D01*
X155563Y193545D01*
X155797Y193625D01*
X156029Y193710D01*
X156259Y193802D01*
X156487Y193898D01*
X156712Y194001D01*
X156935Y194108D01*
X157155Y194222D01*
X157372Y194340D01*
X157587Y194464D01*
X157798Y194593D01*
X158006Y194727D01*
X158211Y194866D01*
X158412Y195010D01*
X158610Y195158D01*
X158804Y195312D01*
X158994Y195470D01*
X159180Y195633D01*
X159362Y195800D01*
X159540Y195972D01*
X159714Y196148D01*
X159884Y196328D01*
X160049Y196513D01*
X160209Y196701D01*
X160365Y196893D01*
X160517Y197089D01*
X160663Y197288D01*
X160805Y197491D01*
X160941Y197698D01*
X161073Y197907D01*
X161199Y198120D01*
X161320Y198336D01*
X161436Y198554D01*
X161546Y198776D01*
X161651Y199000D01*
X161751Y199226D01*
X161845Y199455D01*
X161933Y199686D01*
X162016Y199920D01*
X162093Y200155D01*
X162164Y200392D01*
X162230Y200630D01*
X162289Y200870D01*
X162343Y201112D01*
X162391Y201355D01*
X162433Y201598D01*
X162469Y201843D01*
X162499Y202089D01*
X162523Y202335D01*
X162541Y202582D01*
X162553Y202829D01*
X162559Y203076D01*
X162559Y203324D01*
X162553Y203571D01*
X162541Y203818D01*
X162523Y204065D01*
X162499Y204311D01*
X162469Y204557D01*
X162433Y204802D01*
X162391Y205045D01*
X162343Y205288D01*
X162289Y205530D01*
X162230Y205770D01*
X162164Y206008D01*
X162093Y206245D01*
X162016Y206480D01*
X161933Y206714D01*
X161845Y206945D01*
X161751Y207174D01*
X161651Y207400D01*
X161546Y207624D01*
X161436Y207846D01*
X161320Y208064D01*
X161199Y208280D01*
X161073Y208493D01*
X160941Y208702D01*
X160805Y208909D01*
X160663Y209112D01*
X160517Y209311D01*
X160365Y209507D01*
X160209Y209699D01*
X160049Y209887D01*
X159884Y210072D01*
X159714Y210252D01*
X159540Y210428D01*
X159362Y210600D01*
X159180Y210767D01*
X158994Y210930D01*
X158804Y211088D01*
X158610Y211242D01*
X158412Y211390D01*
X158211Y211534D01*
X158006Y211673D01*
X157798Y211807D01*
X157587Y211936D01*
X157372Y212060D01*
X157155Y212178D01*
X156935Y212292D01*
X156712Y212399D01*
X156487Y212502D01*
X156259Y212598D01*
X156029Y212690D01*
X155797Y212775D01*
X155563Y212855D01*
X155327Y212929D01*
X155089Y212998D01*
X154850Y213060D01*
X154609Y213117D01*
X154367Y213168D01*
X154124Y213213D01*
X153879Y213252D01*
X153634Y213285D01*
X153388Y213312D01*
X153142Y213333D01*
X152895Y213348D01*
X152647Y213357D01*
X152400Y213360D01*
D12*
X149225Y175895D02*
X137795Y175895D01*
X149225Y174625D02*
X149225Y177165D01*
X137795Y177165D02*
X137795Y174625D01*
X149225Y184367D02*
X149225Y186907D01*
X149225Y184367D02*
X149223Y184267D01*
X149217Y184168D01*
X149207Y184068D01*
X149194Y183970D01*
X149176Y183871D01*
X149155Y183774D01*
X149130Y183678D01*
X149101Y183582D01*
X149068Y183488D01*
X149032Y183395D01*
X148992Y183304D01*
X148948Y183214D01*
X148901Y183126D01*
X148851Y183040D01*
X148797Y182956D01*
X148740Y182874D01*
X148680Y182795D01*
X148616Y182717D01*
X148550Y182643D01*
X148481Y182571D01*
X148409Y182502D01*
X148335Y182436D01*
X148257Y182372D01*
X148178Y182312D01*
X148096Y182255D01*
X148012Y182201D01*
X147926Y182151D01*
X147838Y182104D01*
X147748Y182060D01*
X147657Y182020D01*
X147564Y181984D01*
X147470Y181951D01*
X147374Y181922D01*
X147278Y181897D01*
X147181Y181876D01*
X147082Y181858D01*
X146984Y181845D01*
X146884Y181835D01*
X146785Y181829D01*
X146685Y181827D01*
X140335Y181827D01*
X140235Y181829D01*
X140136Y181835D01*
X140036Y181845D01*
X139938Y181858D01*
X139839Y181876D01*
X139742Y181897D01*
X139646Y181922D01*
X139550Y181951D01*
X139456Y181984D01*
X139363Y182020D01*
X139272Y182060D01*
X139182Y182104D01*
X139094Y182151D01*
X139008Y182201D01*
X138924Y182255D01*
X138842Y182312D01*
X138763Y182372D01*
X138685Y182436D01*
X138611Y182502D01*
X138539Y182571D01*
X138470Y182643D01*
X138404Y182717D01*
X138340Y182795D01*
X138280Y182874D01*
X138223Y182956D01*
X138169Y183040D01*
X138119Y183126D01*
X138072Y183214D01*
X138028Y183304D01*
X137988Y183395D01*
X137952Y183488D01*
X137919Y183582D01*
X137890Y183678D01*
X137865Y183774D01*
X137844Y183871D01*
X137826Y183970D01*
X137813Y184068D01*
X137803Y184168D01*
X137797Y184267D01*
X137795Y184367D01*
X137795Y186907D01*
X140335Y191389D02*
X137795Y194564D01*
X149225Y194564D01*
X149225Y191389D02*
X149225Y197739D01*
D10*
X233680Y114300D02*
X233686Y114799D01*
X233704Y115297D01*
X233735Y115795D01*
X233778Y116292D01*
X233833Y116787D01*
X233900Y117282D01*
X233979Y117774D01*
X234070Y118264D01*
X234174Y118752D01*
X234289Y119237D01*
X234416Y119720D01*
X234555Y120199D01*
X234706Y120674D01*
X234868Y121146D01*
X235042Y121613D01*
X235227Y122076D01*
X235423Y122535D01*
X235631Y122988D01*
X235850Y123436D01*
X236079Y123879D01*
X236320Y124316D01*
X236571Y124747D01*
X236833Y125171D01*
X237105Y125589D01*
X237387Y126000D01*
X237679Y126405D01*
X237981Y126802D01*
X238292Y127191D01*
X238614Y127572D01*
X238944Y127946D01*
X239283Y128311D01*
X239632Y128668D01*
X239989Y129017D01*
X240354Y129356D01*
X240728Y129686D01*
X241109Y130008D01*
X241498Y130319D01*
X241895Y130621D01*
X242300Y130913D01*
X242711Y131195D01*
X243129Y131467D01*
X243553Y131729D01*
X243984Y131980D01*
X244421Y132221D01*
X244864Y132450D01*
X245312Y132669D01*
X245765Y132877D01*
X246224Y133073D01*
X246687Y133258D01*
X247154Y133432D01*
X247626Y133594D01*
X248101Y133745D01*
X248580Y133884D01*
X249063Y134011D01*
X249548Y134126D01*
X250036Y134230D01*
X250526Y134321D01*
X251018Y134400D01*
X251513Y134467D01*
X252008Y134522D01*
X252505Y134565D01*
X253003Y134596D01*
X253501Y134614D01*
X254000Y134620D01*
X254499Y134614D01*
X254997Y134596D01*
X255495Y134565D01*
X255992Y134522D01*
X256487Y134467D01*
X256982Y134400D01*
X257474Y134321D01*
X257964Y134230D01*
X258452Y134126D01*
X258937Y134011D01*
X259420Y133884D01*
X259899Y133745D01*
X260374Y133594D01*
X260846Y133432D01*
X261313Y133258D01*
X261776Y133073D01*
X262235Y132877D01*
X262688Y132669D01*
X263136Y132450D01*
X263579Y132221D01*
X264016Y131980D01*
X264447Y131729D01*
X264871Y131467D01*
X265289Y131195D01*
X265700Y130913D01*
X266105Y130621D01*
X266502Y130319D01*
X266891Y130008D01*
X267272Y129686D01*
X267646Y129356D01*
X268011Y129017D01*
X268368Y128668D01*
X268717Y128311D01*
X269056Y127946D01*
X269386Y127572D01*
X269708Y127191D01*
X270019Y126802D01*
X270321Y126405D01*
X270613Y126000D01*
X270895Y125589D01*
X271167Y125171D01*
X271429Y124747D01*
X271680Y124316D01*
X271921Y123879D01*
X272150Y123436D01*
X272369Y122988D01*
X272577Y122535D01*
X272773Y122076D01*
X272958Y121613D01*
X273132Y121146D01*
X273294Y120674D01*
X273445Y120199D01*
X273584Y119720D01*
X273711Y119237D01*
X273826Y118752D01*
X273930Y118264D01*
X274021Y117774D01*
X274100Y117282D01*
X274167Y116787D01*
X274222Y116292D01*
X274265Y115795D01*
X274296Y115297D01*
X274314Y114799D01*
X274320Y114300D01*
X274314Y113801D01*
X274296Y113303D01*
X274265Y112805D01*
X274222Y112308D01*
X274167Y111813D01*
X274100Y111318D01*
X274021Y110826D01*
X273930Y110336D01*
X273826Y109848D01*
X273711Y109363D01*
X273584Y108880D01*
X273445Y108401D01*
X273294Y107926D01*
X273132Y107454D01*
X272958Y106987D01*
X272773Y106524D01*
X272577Y106065D01*
X272369Y105612D01*
X272150Y105164D01*
X271921Y104721D01*
X271680Y104284D01*
X271429Y103853D01*
X271167Y103429D01*
X270895Y103011D01*
X270613Y102600D01*
X270321Y102195D01*
X270019Y101798D01*
X269708Y101409D01*
X269386Y101028D01*
X269056Y100654D01*
X268717Y100289D01*
X268368Y99932D01*
X268011Y99583D01*
X267646Y99244D01*
X267272Y98914D01*
X266891Y98592D01*
X266502Y98281D01*
X266105Y97979D01*
X265700Y97687D01*
X265289Y97405D01*
X264871Y97133D01*
X264447Y96871D01*
X264016Y96620D01*
X263579Y96379D01*
X263136Y96150D01*
X262688Y95931D01*
X262235Y95723D01*
X261776Y95527D01*
X261313Y95342D01*
X260846Y95168D01*
X260374Y95006D01*
X259899Y94855D01*
X259420Y94716D01*
X258937Y94589D01*
X258452Y94474D01*
X257964Y94370D01*
X257474Y94279D01*
X256982Y94200D01*
X256487Y94133D01*
X255992Y94078D01*
X255495Y94035D01*
X254997Y94004D01*
X254499Y93986D01*
X254000Y93980D01*
X253501Y93986D01*
X253003Y94004D01*
X252505Y94035D01*
X252008Y94078D01*
X251513Y94133D01*
X251018Y94200D01*
X250526Y94279D01*
X250036Y94370D01*
X249548Y94474D01*
X249063Y94589D01*
X248580Y94716D01*
X248101Y94855D01*
X247626Y95006D01*
X247154Y95168D01*
X246687Y95342D01*
X246224Y95527D01*
X245765Y95723D01*
X245312Y95931D01*
X244864Y96150D01*
X244421Y96379D01*
X243984Y96620D01*
X243553Y96871D01*
X243129Y97133D01*
X242711Y97405D01*
X242300Y97687D01*
X241895Y97979D01*
X241498Y98281D01*
X241109Y98592D01*
X240728Y98914D01*
X240354Y99244D01*
X239989Y99583D01*
X239632Y99932D01*
X239283Y100289D01*
X238944Y100654D01*
X238614Y101028D01*
X238292Y101409D01*
X237981Y101798D01*
X237679Y102195D01*
X237387Y102600D01*
X237105Y103011D01*
X236833Y103429D01*
X236571Y103853D01*
X236320Y104284D01*
X236079Y104721D01*
X235850Y105164D01*
X235631Y105612D01*
X235423Y106065D01*
X235227Y106524D01*
X235042Y106987D01*
X234868Y107454D01*
X234706Y107926D01*
X234555Y108401D01*
X234416Y108880D01*
X234289Y109363D01*
X234174Y109848D01*
X234070Y110336D01*
X233979Y110826D01*
X233900Y111318D01*
X233833Y111813D01*
X233778Y112308D01*
X233735Y112805D01*
X233704Y113303D01*
X233686Y113801D01*
X233680Y114300D01*
D13*
X234950Y114300D03*
D12*
X215348Y102235D02*
X215348Y90805D01*
X215348Y102235D02*
X218523Y102235D01*
X218634Y102233D01*
X218744Y102227D01*
X218855Y102218D01*
X218965Y102204D01*
X219074Y102187D01*
X219183Y102166D01*
X219291Y102141D01*
X219398Y102112D01*
X219504Y102080D01*
X219609Y102044D01*
X219712Y102004D01*
X219814Y101961D01*
X219915Y101914D01*
X220014Y101863D01*
X220111Y101810D01*
X220205Y101753D01*
X220298Y101692D01*
X220389Y101629D01*
X220478Y101562D01*
X220564Y101492D01*
X220647Y101419D01*
X220729Y101344D01*
X220807Y101266D01*
X220882Y101184D01*
X220955Y101101D01*
X221025Y101015D01*
X221092Y100926D01*
X221155Y100835D01*
X221216Y100742D01*
X221273Y100647D01*
X221326Y100551D01*
X221377Y100452D01*
X221424Y100351D01*
X221467Y100249D01*
X221507Y100146D01*
X221543Y100041D01*
X221575Y99935D01*
X221604Y99828D01*
X221629Y99720D01*
X221650Y99611D01*
X221667Y99502D01*
X221681Y99392D01*
X221690Y99281D01*
X221696Y99171D01*
X221698Y99060D01*
X221696Y98949D01*
X221690Y98839D01*
X221681Y98728D01*
X221667Y98618D01*
X221650Y98509D01*
X221629Y98400D01*
X221604Y98292D01*
X221575Y98185D01*
X221543Y98079D01*
X221507Y97974D01*
X221467Y97871D01*
X221424Y97769D01*
X221377Y97668D01*
X221326Y97569D01*
X221273Y97472D01*
X221216Y97378D01*
X221155Y97285D01*
X221092Y97194D01*
X221025Y97105D01*
X220955Y97019D01*
X220882Y96936D01*
X220807Y96854D01*
X220729Y96776D01*
X220647Y96701D01*
X220564Y96628D01*
X220478Y96558D01*
X220389Y96491D01*
X220298Y96428D01*
X220205Y96367D01*
X220110Y96310D01*
X220014Y96257D01*
X219915Y96206D01*
X219814Y96159D01*
X219712Y96116D01*
X219609Y96076D01*
X219504Y96040D01*
X219398Y96008D01*
X219291Y95979D01*
X219183Y95954D01*
X219074Y95933D01*
X218965Y95916D01*
X218855Y95902D01*
X218744Y95893D01*
X218634Y95887D01*
X218523Y95885D01*
X215348Y95885D01*
X219158Y95885D02*
X221698Y90805D01*
X226695Y99695D02*
X229870Y102235D01*
X229870Y90805D01*
X226695Y90805D02*
X233045Y90805D01*
D10*
X93980Y177800D02*
X93986Y178299D01*
X94004Y178797D01*
X94035Y179295D01*
X94078Y179792D01*
X94133Y180287D01*
X94200Y180782D01*
X94279Y181274D01*
X94370Y181764D01*
X94474Y182252D01*
X94589Y182737D01*
X94716Y183220D01*
X94855Y183699D01*
X95006Y184174D01*
X95168Y184646D01*
X95342Y185113D01*
X95527Y185576D01*
X95723Y186035D01*
X95931Y186488D01*
X96150Y186936D01*
X96379Y187379D01*
X96620Y187816D01*
X96871Y188247D01*
X97133Y188671D01*
X97405Y189089D01*
X97687Y189500D01*
X97979Y189905D01*
X98281Y190302D01*
X98592Y190691D01*
X98914Y191072D01*
X99244Y191446D01*
X99583Y191811D01*
X99932Y192168D01*
X100289Y192517D01*
X100654Y192856D01*
X101028Y193186D01*
X101409Y193508D01*
X101798Y193819D01*
X102195Y194121D01*
X102600Y194413D01*
X103011Y194695D01*
X103429Y194967D01*
X103853Y195229D01*
X104284Y195480D01*
X104721Y195721D01*
X105164Y195950D01*
X105612Y196169D01*
X106065Y196377D01*
X106524Y196573D01*
X106987Y196758D01*
X107454Y196932D01*
X107926Y197094D01*
X108401Y197245D01*
X108880Y197384D01*
X109363Y197511D01*
X109848Y197626D01*
X110336Y197730D01*
X110826Y197821D01*
X111318Y197900D01*
X111813Y197967D01*
X112308Y198022D01*
X112805Y198065D01*
X113303Y198096D01*
X113801Y198114D01*
X114300Y198120D01*
X114799Y198114D01*
X115297Y198096D01*
X115795Y198065D01*
X116292Y198022D01*
X116787Y197967D01*
X117282Y197900D01*
X117774Y197821D01*
X118264Y197730D01*
X118752Y197626D01*
X119237Y197511D01*
X119720Y197384D01*
X120199Y197245D01*
X120674Y197094D01*
X121146Y196932D01*
X121613Y196758D01*
X122076Y196573D01*
X122535Y196377D01*
X122988Y196169D01*
X123436Y195950D01*
X123879Y195721D01*
X124316Y195480D01*
X124747Y195229D01*
X125171Y194967D01*
X125589Y194695D01*
X126000Y194413D01*
X126405Y194121D01*
X126802Y193819D01*
X127191Y193508D01*
X127572Y193186D01*
X127946Y192856D01*
X128311Y192517D01*
X128668Y192168D01*
X129017Y191811D01*
X129356Y191446D01*
X129686Y191072D01*
X130008Y190691D01*
X130319Y190302D01*
X130621Y189905D01*
X130913Y189500D01*
X131195Y189089D01*
X131467Y188671D01*
X131729Y188247D01*
X131980Y187816D01*
X132221Y187379D01*
X132450Y186936D01*
X132669Y186488D01*
X132877Y186035D01*
X133073Y185576D01*
X133258Y185113D01*
X133432Y184646D01*
X133594Y184174D01*
X133745Y183699D01*
X133884Y183220D01*
X134011Y182737D01*
X134126Y182252D01*
X134230Y181764D01*
X134321Y181274D01*
X134400Y180782D01*
X134467Y180287D01*
X134522Y179792D01*
X134565Y179295D01*
X134596Y178797D01*
X134614Y178299D01*
X134620Y177800D01*
X134614Y177301D01*
X134596Y176803D01*
X134565Y176305D01*
X134522Y175808D01*
X134467Y175313D01*
X134400Y174818D01*
X134321Y174326D01*
X134230Y173836D01*
X134126Y173348D01*
X134011Y172863D01*
X133884Y172380D01*
X133745Y171901D01*
X133594Y171426D01*
X133432Y170954D01*
X133258Y170487D01*
X133073Y170024D01*
X132877Y169565D01*
X132669Y169112D01*
X132450Y168664D01*
X132221Y168221D01*
X131980Y167784D01*
X131729Y167353D01*
X131467Y166929D01*
X131195Y166511D01*
X130913Y166100D01*
X130621Y165695D01*
X130319Y165298D01*
X130008Y164909D01*
X129686Y164528D01*
X129356Y164154D01*
X129017Y163789D01*
X128668Y163432D01*
X128311Y163083D01*
X127946Y162744D01*
X127572Y162414D01*
X127191Y162092D01*
X126802Y161781D01*
X126405Y161479D01*
X126000Y161187D01*
X125589Y160905D01*
X125171Y160633D01*
X124747Y160371D01*
X124316Y160120D01*
X123879Y159879D01*
X123436Y159650D01*
X122988Y159431D01*
X122535Y159223D01*
X122076Y159027D01*
X121613Y158842D01*
X121146Y158668D01*
X120674Y158506D01*
X120199Y158355D01*
X119720Y158216D01*
X119237Y158089D01*
X118752Y157974D01*
X118264Y157870D01*
X117774Y157779D01*
X117282Y157700D01*
X116787Y157633D01*
X116292Y157578D01*
X115795Y157535D01*
X115297Y157504D01*
X114799Y157486D01*
X114300Y157480D01*
X113801Y157486D01*
X113303Y157504D01*
X112805Y157535D01*
X112308Y157578D01*
X111813Y157633D01*
X111318Y157700D01*
X110826Y157779D01*
X110336Y157870D01*
X109848Y157974D01*
X109363Y158089D01*
X108880Y158216D01*
X108401Y158355D01*
X107926Y158506D01*
X107454Y158668D01*
X106987Y158842D01*
X106524Y159027D01*
X106065Y159223D01*
X105612Y159431D01*
X105164Y159650D01*
X104721Y159879D01*
X104284Y160120D01*
X103853Y160371D01*
X103429Y160633D01*
X103011Y160905D01*
X102600Y161187D01*
X102195Y161479D01*
X101798Y161781D01*
X101409Y162092D01*
X101028Y162414D01*
X100654Y162744D01*
X100289Y163083D01*
X99932Y163432D01*
X99583Y163789D01*
X99244Y164154D01*
X98914Y164528D01*
X98592Y164909D01*
X98281Y165298D01*
X97979Y165695D01*
X97687Y166100D01*
X97405Y166511D01*
X97133Y166929D01*
X96871Y167353D01*
X96620Y167784D01*
X96379Y168221D01*
X96150Y168664D01*
X95931Y169112D01*
X95723Y169565D01*
X95527Y170024D01*
X95342Y170487D01*
X95168Y170954D01*
X95006Y171426D01*
X94855Y171901D01*
X94716Y172380D01*
X94589Y172863D01*
X94474Y173348D01*
X94370Y173836D01*
X94279Y174326D01*
X94200Y174818D01*
X94133Y175313D01*
X94078Y175808D01*
X94035Y176305D01*
X94004Y176803D01*
X93986Y177301D01*
X93980Y177800D01*
D14*
X114300Y196850D03*
D12*
X102235Y198755D02*
X90805Y198755D01*
X90805Y201930D01*
X90807Y202041D01*
X90813Y202151D01*
X90822Y202262D01*
X90836Y202372D01*
X90853Y202481D01*
X90874Y202590D01*
X90899Y202698D01*
X90928Y202805D01*
X90960Y202911D01*
X90996Y203016D01*
X91036Y203119D01*
X91079Y203221D01*
X91126Y203322D01*
X91177Y203421D01*
X91230Y203518D01*
X91287Y203612D01*
X91348Y203705D01*
X91411Y203796D01*
X91478Y203885D01*
X91548Y203971D01*
X91621Y204054D01*
X91696Y204136D01*
X91774Y204214D01*
X91856Y204289D01*
X91939Y204362D01*
X92025Y204432D01*
X92114Y204499D01*
X92205Y204562D01*
X92298Y204623D01*
X92393Y204680D01*
X92489Y204733D01*
X92588Y204784D01*
X92689Y204831D01*
X92791Y204874D01*
X92894Y204914D01*
X92999Y204950D01*
X93105Y204982D01*
X93212Y205011D01*
X93320Y205036D01*
X93429Y205057D01*
X93538Y205074D01*
X93648Y205088D01*
X93759Y205097D01*
X93869Y205103D01*
X93980Y205105D01*
X94091Y205103D01*
X94201Y205097D01*
X94312Y205088D01*
X94422Y205074D01*
X94531Y205057D01*
X94640Y205036D01*
X94748Y205011D01*
X94855Y204982D01*
X94961Y204950D01*
X95066Y204914D01*
X95169Y204874D01*
X95271Y204831D01*
X95372Y204784D01*
X95471Y204733D01*
X95568Y204680D01*
X95662Y204623D01*
X95755Y204562D01*
X95846Y204499D01*
X95935Y204432D01*
X96021Y204362D01*
X96104Y204289D01*
X96186Y204214D01*
X96264Y204136D01*
X96339Y204054D01*
X96412Y203971D01*
X96482Y203885D01*
X96549Y203796D01*
X96612Y203705D01*
X96673Y203612D01*
X96730Y203518D01*
X96783Y203421D01*
X96834Y203322D01*
X96881Y203221D01*
X96924Y203119D01*
X96964Y203016D01*
X97000Y202911D01*
X97032Y202805D01*
X97061Y202698D01*
X97086Y202590D01*
X97107Y202481D01*
X97124Y202372D01*
X97138Y202262D01*
X97147Y202151D01*
X97153Y202041D01*
X97155Y201930D01*
X97155Y198755D01*
X97155Y202565D02*
X102235Y205105D01*
X93663Y216453D02*
X93559Y216451D01*
X93454Y216445D01*
X93350Y216436D01*
X93247Y216423D01*
X93144Y216405D01*
X93042Y216385D01*
X92940Y216360D01*
X92840Y216332D01*
X92740Y216300D01*
X92642Y216264D01*
X92545Y216225D01*
X92450Y216183D01*
X92356Y216137D01*
X92264Y216087D01*
X92174Y216035D01*
X92086Y215979D01*
X92000Y215919D01*
X91916Y215857D01*
X91835Y215792D01*
X91756Y215724D01*
X91679Y215652D01*
X91606Y215579D01*
X91534Y215502D01*
X91466Y215423D01*
X91401Y215342D01*
X91339Y215258D01*
X91279Y215172D01*
X91223Y215084D01*
X91171Y214994D01*
X91121Y214902D01*
X91075Y214808D01*
X91033Y214713D01*
X90994Y214616D01*
X90958Y214518D01*
X90926Y214418D01*
X90898Y214318D01*
X90873Y214216D01*
X90853Y214114D01*
X90835Y214011D01*
X90822Y213908D01*
X90813Y213804D01*
X90807Y213699D01*
X90805Y213595D01*
X90807Y213477D01*
X90813Y213358D01*
X90822Y213240D01*
X90835Y213123D01*
X90853Y213006D01*
X90873Y212889D01*
X90898Y212773D01*
X90926Y212658D01*
X90959Y212545D01*
X90994Y212432D01*
X91034Y212320D01*
X91076Y212210D01*
X91123Y212101D01*
X91173Y211993D01*
X91226Y211888D01*
X91283Y211784D01*
X91343Y211682D01*
X91406Y211582D01*
X91473Y211484D01*
X91542Y211388D01*
X91615Y211295D01*
X91691Y211204D01*
X91769Y211115D01*
X91851Y211029D01*
X91935Y210946D01*
X92021Y210865D01*
X92111Y210788D01*
X92202Y210713D01*
X92296Y210641D01*
X92393Y210572D01*
X92491Y210507D01*
X92592Y210444D01*
X92695Y210385D01*
X92799Y210329D01*
X92905Y210277D01*
X93013Y210228D01*
X93122Y210183D01*
X93233Y210141D01*
X93345Y210103D01*
X95885Y215500D02*
X95810Y215576D01*
X95731Y215651D01*
X95650Y215722D01*
X95566Y215791D01*
X95480Y215856D01*
X95392Y215918D01*
X95302Y215978D01*
X95210Y216034D01*
X95115Y216087D01*
X95019Y216136D01*
X94921Y216182D01*
X94822Y216225D01*
X94721Y216264D01*
X94619Y216299D01*
X94516Y216331D01*
X94412Y216359D01*
X94307Y216384D01*
X94200Y216405D01*
X94094Y216422D01*
X93987Y216435D01*
X93879Y216444D01*
X93771Y216450D01*
X93663Y216452D01*
X95885Y215500D02*
X102235Y210102D01*
X102235Y216452D01*
D10*
X132080Y101600D02*
X132086Y102099D01*
X132104Y102597D01*
X132135Y103095D01*
X132178Y103592D01*
X132233Y104087D01*
X132300Y104582D01*
X132379Y105074D01*
X132470Y105564D01*
X132574Y106052D01*
X132689Y106537D01*
X132816Y107020D01*
X132955Y107499D01*
X133106Y107974D01*
X133268Y108446D01*
X133442Y108913D01*
X133627Y109376D01*
X133823Y109835D01*
X134031Y110288D01*
X134250Y110736D01*
X134479Y111179D01*
X134720Y111616D01*
X134971Y112047D01*
X135233Y112471D01*
X135505Y112889D01*
X135787Y113300D01*
X136079Y113705D01*
X136381Y114102D01*
X136692Y114491D01*
X137014Y114872D01*
X137344Y115246D01*
X137683Y115611D01*
X138032Y115968D01*
X138389Y116317D01*
X138754Y116656D01*
X139128Y116986D01*
X139509Y117308D01*
X139898Y117619D01*
X140295Y117921D01*
X140700Y118213D01*
X141111Y118495D01*
X141529Y118767D01*
X141953Y119029D01*
X142384Y119280D01*
X142821Y119521D01*
X143264Y119750D01*
X143712Y119969D01*
X144165Y120177D01*
X144624Y120373D01*
X145087Y120558D01*
X145554Y120732D01*
X146026Y120894D01*
X146501Y121045D01*
X146980Y121184D01*
X147463Y121311D01*
X147948Y121426D01*
X148436Y121530D01*
X148926Y121621D01*
X149418Y121700D01*
X149913Y121767D01*
X150408Y121822D01*
X150905Y121865D01*
X151403Y121896D01*
X151901Y121914D01*
X152400Y121920D01*
X152899Y121914D01*
X153397Y121896D01*
X153895Y121865D01*
X154392Y121822D01*
X154887Y121767D01*
X155382Y121700D01*
X155874Y121621D01*
X156364Y121530D01*
X156852Y121426D01*
X157337Y121311D01*
X157820Y121184D01*
X158299Y121045D01*
X158774Y120894D01*
X159246Y120732D01*
X159713Y120558D01*
X160176Y120373D01*
X160635Y120177D01*
X161088Y119969D01*
X161536Y119750D01*
X161979Y119521D01*
X162416Y119280D01*
X162847Y119029D01*
X163271Y118767D01*
X163689Y118495D01*
X164100Y118213D01*
X164505Y117921D01*
X164902Y117619D01*
X165291Y117308D01*
X165672Y116986D01*
X166046Y116656D01*
X166411Y116317D01*
X166768Y115968D01*
X167117Y115611D01*
X167456Y115246D01*
X167786Y114872D01*
X168108Y114491D01*
X168419Y114102D01*
X168721Y113705D01*
X169013Y113300D01*
X169295Y112889D01*
X169567Y112471D01*
X169829Y112047D01*
X170080Y111616D01*
X170321Y111179D01*
X170550Y110736D01*
X170769Y110288D01*
X170977Y109835D01*
X171173Y109376D01*
X171358Y108913D01*
X171532Y108446D01*
X171694Y107974D01*
X171845Y107499D01*
X171984Y107020D01*
X172111Y106537D01*
X172226Y106052D01*
X172330Y105564D01*
X172421Y105074D01*
X172500Y104582D01*
X172567Y104087D01*
X172622Y103592D01*
X172665Y103095D01*
X172696Y102597D01*
X172714Y102099D01*
X172720Y101600D01*
X172714Y101101D01*
X172696Y100603D01*
X172665Y100105D01*
X172622Y99608D01*
X172567Y99113D01*
X172500Y98618D01*
X172421Y98126D01*
X172330Y97636D01*
X172226Y97148D01*
X172111Y96663D01*
X171984Y96180D01*
X171845Y95701D01*
X171694Y95226D01*
X171532Y94754D01*
X171358Y94287D01*
X171173Y93824D01*
X170977Y93365D01*
X170769Y92912D01*
X170550Y92464D01*
X170321Y92021D01*
X170080Y91584D01*
X169829Y91153D01*
X169567Y90729D01*
X169295Y90311D01*
X169013Y89900D01*
X168721Y89495D01*
X168419Y89098D01*
X168108Y88709D01*
X167786Y88328D01*
X167456Y87954D01*
X167117Y87589D01*
X166768Y87232D01*
X166411Y86883D01*
X166046Y86544D01*
X165672Y86214D01*
X165291Y85892D01*
X164902Y85581D01*
X164505Y85279D01*
X164100Y84987D01*
X163689Y84705D01*
X163271Y84433D01*
X162847Y84171D01*
X162416Y83920D01*
X161979Y83679D01*
X161536Y83450D01*
X161088Y83231D01*
X160635Y83023D01*
X160176Y82827D01*
X159713Y82642D01*
X159246Y82468D01*
X158774Y82306D01*
X158299Y82155D01*
X157820Y82016D01*
X157337Y81889D01*
X156852Y81774D01*
X156364Y81670D01*
X155874Y81579D01*
X155382Y81500D01*
X154887Y81433D01*
X154392Y81378D01*
X153895Y81335D01*
X153397Y81304D01*
X152899Y81286D01*
X152400Y81280D01*
X151901Y81286D01*
X151403Y81304D01*
X150905Y81335D01*
X150408Y81378D01*
X149913Y81433D01*
X149418Y81500D01*
X148926Y81579D01*
X148436Y81670D01*
X147948Y81774D01*
X147463Y81889D01*
X146980Y82016D01*
X146501Y82155D01*
X146026Y82306D01*
X145554Y82468D01*
X145087Y82642D01*
X144624Y82827D01*
X144165Y83023D01*
X143712Y83231D01*
X143264Y83450D01*
X142821Y83679D01*
X142384Y83920D01*
X141953Y84171D01*
X141529Y84433D01*
X141111Y84705D01*
X140700Y84987D01*
X140295Y85279D01*
X139898Y85581D01*
X139509Y85892D01*
X139128Y86214D01*
X138754Y86544D01*
X138389Y86883D01*
X138032Y87232D01*
X137683Y87589D01*
X137344Y87954D01*
X137014Y88328D01*
X136692Y88709D01*
X136381Y89098D01*
X136079Y89495D01*
X135787Y89900D01*
X135505Y90311D01*
X135233Y90729D01*
X134971Y91153D01*
X134720Y91584D01*
X134479Y92021D01*
X134250Y92464D01*
X134031Y92912D01*
X133823Y93365D01*
X133627Y93824D01*
X133442Y94287D01*
X133268Y94754D01*
X133106Y95226D01*
X132955Y95701D01*
X132816Y96180D01*
X132689Y96663D01*
X132574Y97148D01*
X132470Y97636D01*
X132379Y98126D01*
X132300Y98618D01*
X132233Y99113D01*
X132178Y99608D01*
X132135Y100105D01*
X132104Y100603D01*
X132086Y101101D01*
X132080Y101600D01*
D13*
X171450Y101600D03*
D12*
X173355Y113665D02*
X173355Y125095D01*
X176530Y125095D01*
X176641Y125093D01*
X176751Y125087D01*
X176862Y125078D01*
X176972Y125064D01*
X177081Y125047D01*
X177190Y125026D01*
X177298Y125001D01*
X177405Y124972D01*
X177511Y124940D01*
X177616Y124904D01*
X177719Y124864D01*
X177821Y124821D01*
X177922Y124774D01*
X178021Y124723D01*
X178118Y124670D01*
X178212Y124613D01*
X178305Y124552D01*
X178396Y124489D01*
X178485Y124422D01*
X178571Y124352D01*
X178654Y124279D01*
X178736Y124204D01*
X178814Y124126D01*
X178889Y124044D01*
X178962Y123961D01*
X179032Y123875D01*
X179099Y123786D01*
X179162Y123695D01*
X179223Y123602D01*
X179280Y123507D01*
X179333Y123411D01*
X179384Y123312D01*
X179431Y123211D01*
X179474Y123109D01*
X179514Y123006D01*
X179550Y122901D01*
X179582Y122795D01*
X179611Y122688D01*
X179636Y122580D01*
X179657Y122471D01*
X179674Y122362D01*
X179688Y122252D01*
X179697Y122141D01*
X179703Y122031D01*
X179705Y121920D01*
X179703Y121809D01*
X179697Y121699D01*
X179688Y121588D01*
X179674Y121478D01*
X179657Y121369D01*
X179636Y121260D01*
X179611Y121152D01*
X179582Y121045D01*
X179550Y120939D01*
X179514Y120834D01*
X179474Y120731D01*
X179431Y120629D01*
X179384Y120528D01*
X179333Y120429D01*
X179280Y120332D01*
X179223Y120238D01*
X179162Y120145D01*
X179099Y120054D01*
X179032Y119965D01*
X178962Y119879D01*
X178889Y119796D01*
X178814Y119714D01*
X178736Y119636D01*
X178654Y119561D01*
X178571Y119488D01*
X178485Y119418D01*
X178396Y119351D01*
X178305Y119288D01*
X178212Y119227D01*
X178117Y119170D01*
X178021Y119117D01*
X177922Y119066D01*
X177821Y119019D01*
X177719Y118976D01*
X177616Y118936D01*
X177511Y118900D01*
X177405Y118868D01*
X177298Y118839D01*
X177190Y118814D01*
X177081Y118793D01*
X176972Y118776D01*
X176862Y118762D01*
X176751Y118753D01*
X176641Y118747D01*
X176530Y118745D01*
X173355Y118745D01*
X177165Y118745D02*
X179705Y113665D01*
X184702Y113665D02*
X187877Y113665D01*
X187988Y113667D01*
X188098Y113673D01*
X188209Y113682D01*
X188319Y113696D01*
X188428Y113713D01*
X188537Y113734D01*
X188645Y113759D01*
X188752Y113788D01*
X188858Y113820D01*
X188963Y113856D01*
X189066Y113896D01*
X189168Y113939D01*
X189269Y113986D01*
X189368Y114037D01*
X189464Y114090D01*
X189559Y114147D01*
X189652Y114208D01*
X189743Y114271D01*
X189832Y114338D01*
X189918Y114408D01*
X190001Y114481D01*
X190083Y114556D01*
X190161Y114634D01*
X190236Y114716D01*
X190309Y114799D01*
X190379Y114885D01*
X190446Y114974D01*
X190509Y115065D01*
X190570Y115158D01*
X190627Y115252D01*
X190680Y115349D01*
X190731Y115448D01*
X190778Y115549D01*
X190821Y115651D01*
X190861Y115754D01*
X190897Y115859D01*
X190929Y115965D01*
X190958Y116072D01*
X190983Y116180D01*
X191004Y116289D01*
X191021Y116398D01*
X191035Y116508D01*
X191044Y116619D01*
X191050Y116729D01*
X191052Y116840D01*
X191050Y116951D01*
X191044Y117061D01*
X191035Y117172D01*
X191021Y117282D01*
X191004Y117391D01*
X190983Y117500D01*
X190958Y117608D01*
X190929Y117715D01*
X190897Y117821D01*
X190861Y117926D01*
X190821Y118029D01*
X190778Y118131D01*
X190731Y118232D01*
X190680Y118331D01*
X190627Y118427D01*
X190570Y118522D01*
X190509Y118615D01*
X190446Y118706D01*
X190379Y118795D01*
X190309Y118881D01*
X190236Y118964D01*
X190161Y119046D01*
X190083Y119124D01*
X190001Y119199D01*
X189918Y119272D01*
X189832Y119342D01*
X189743Y119409D01*
X189652Y119472D01*
X189559Y119533D01*
X189465Y119590D01*
X189368Y119643D01*
X189269Y119694D01*
X189168Y119741D01*
X189066Y119784D01*
X188963Y119824D01*
X188858Y119860D01*
X188752Y119892D01*
X188645Y119921D01*
X188537Y119946D01*
X188428Y119967D01*
X188319Y119984D01*
X188209Y119998D01*
X188098Y120007D01*
X187988Y120013D01*
X187877Y120015D01*
X188512Y125095D02*
X184702Y125095D01*
X188512Y125095D02*
X188612Y125093D01*
X188711Y125087D01*
X188811Y125077D01*
X188909Y125064D01*
X189008Y125046D01*
X189105Y125025D01*
X189201Y125000D01*
X189297Y124971D01*
X189391Y124938D01*
X189484Y124902D01*
X189575Y124862D01*
X189665Y124818D01*
X189753Y124771D01*
X189839Y124721D01*
X189923Y124667D01*
X190005Y124610D01*
X190084Y124550D01*
X190162Y124486D01*
X190236Y124420D01*
X190308Y124351D01*
X190377Y124279D01*
X190443Y124205D01*
X190507Y124127D01*
X190567Y124048D01*
X190624Y123966D01*
X190678Y123882D01*
X190728Y123796D01*
X190775Y123708D01*
X190819Y123618D01*
X190859Y123527D01*
X190895Y123434D01*
X190928Y123340D01*
X190957Y123244D01*
X190982Y123148D01*
X191003Y123051D01*
X191021Y122952D01*
X191034Y122854D01*
X191044Y122754D01*
X191050Y122655D01*
X191052Y122555D01*
X191050Y122455D01*
X191044Y122356D01*
X191034Y122256D01*
X191021Y122158D01*
X191003Y122059D01*
X190982Y121962D01*
X190957Y121866D01*
X190928Y121770D01*
X190895Y121676D01*
X190859Y121583D01*
X190819Y121492D01*
X190775Y121402D01*
X190728Y121314D01*
X190678Y121228D01*
X190624Y121144D01*
X190567Y121062D01*
X190507Y120983D01*
X190443Y120905D01*
X190377Y120831D01*
X190308Y120759D01*
X190236Y120690D01*
X190162Y120624D01*
X190084Y120560D01*
X190005Y120500D01*
X189923Y120443D01*
X189839Y120389D01*
X189753Y120339D01*
X189665Y120292D01*
X189575Y120248D01*
X189484Y120208D01*
X189391Y120172D01*
X189297Y120139D01*
X189201Y120110D01*
X189105Y120085D01*
X189008Y120064D01*
X188909Y120046D01*
X188811Y120033D01*
X188711Y120023D01*
X188612Y120017D01*
X188512Y120015D01*
X185972Y120015D01*
D10*
X184150Y254000D02*
X196850Y254000D01*
X184150Y254000D02*
X177800Y260350D01*
X177800Y273050D01*
X184150Y279400D01*
X203200Y273050D02*
X203200Y260350D01*
X196850Y254000D01*
X203200Y273050D02*
X196850Y279400D01*
X184150Y279400D01*
X177800Y260350D02*
X171450Y254000D01*
X158750Y254000D01*
X152400Y260350D01*
X152400Y273050D01*
X158750Y279400D01*
X171450Y279400D01*
X177800Y273050D01*
D12*
X183515Y247777D02*
X187325Y236347D01*
X191135Y247777D01*
X195707Y240792D02*
X203327Y240792D01*
X199517Y236982D02*
X199517Y244602D01*
D10*
X38100Y107950D02*
X38100Y95250D01*
X38100Y107950D02*
X44450Y114300D01*
X57150Y114300D01*
X63500Y107950D01*
X57150Y88900D02*
X44450Y88900D01*
X38100Y95250D01*
X57150Y88900D02*
X63500Y95250D01*
X63500Y107950D01*
X44450Y114300D02*
X38100Y120650D01*
X38100Y133350D01*
X44450Y139700D01*
X57150Y139700D01*
X63500Y133350D01*
X63500Y120650D01*
X57150Y114300D01*
D12*
X31877Y92583D02*
X20447Y88773D01*
X20447Y96393D02*
X31877Y92583D01*
X27432Y100965D02*
X27432Y108585D01*
D10*
X247650Y88900D02*
X260350Y88900D01*
X266700Y82550D01*
X266700Y69850D01*
X260350Y63500D01*
X241300Y69850D02*
X241300Y82550D01*
X247650Y88900D01*
X241300Y69850D02*
X247650Y63500D01*
X260350Y63500D01*
X266700Y82550D02*
X273050Y88900D01*
X285750Y88900D01*
X292100Y82550D01*
X292100Y69850D01*
X285750Y63500D01*
X273050Y63500D01*
X266700Y69850D01*
D12*
X241173Y55753D02*
X244983Y44323D01*
X248793Y55753D01*
X254127Y55753D02*
X254127Y44323D01*
X252857Y44323D02*
X255397Y44323D01*
X255397Y55753D02*
X252857Y55753D01*
X260477Y55753D02*
X260477Y44323D01*
X266827Y44323D02*
X260477Y55753D01*
X266827Y55753D02*
X266827Y44323D01*
D10*
X292100Y209550D02*
X292100Y222250D01*
X292100Y209550D02*
X285750Y203200D01*
X273050Y203200D01*
X266700Y209550D01*
X273050Y228600D02*
X285750Y228600D01*
X292100Y222250D01*
X273050Y228600D02*
X266700Y222250D01*
X266700Y209550D01*
X285750Y203200D02*
X292100Y196850D01*
X292100Y184150D01*
X285750Y177800D01*
X273050Y177800D01*
X266700Y184150D01*
X266700Y196850D01*
X273050Y203200D01*
D12*
X298323Y187452D02*
X309753Y191262D01*
X298323Y195072D01*
X301498Y199517D02*
X306578Y199517D01*
X301498Y199517D02*
X301387Y199519D01*
X301277Y199525D01*
X301166Y199534D01*
X301056Y199548D01*
X300947Y199565D01*
X300838Y199586D01*
X300730Y199611D01*
X300623Y199640D01*
X300517Y199672D01*
X300412Y199708D01*
X300309Y199748D01*
X300207Y199791D01*
X300106Y199838D01*
X300007Y199889D01*
X299911Y199942D01*
X299816Y199999D01*
X299723Y200060D01*
X299632Y200123D01*
X299543Y200190D01*
X299457Y200260D01*
X299374Y200333D01*
X299292Y200408D01*
X299214Y200486D01*
X299139Y200568D01*
X299066Y200651D01*
X298996Y200737D01*
X298929Y200826D01*
X298866Y200917D01*
X298805Y201010D01*
X298748Y201105D01*
X298695Y201201D01*
X298644Y201300D01*
X298597Y201401D01*
X298554Y201503D01*
X298514Y201606D01*
X298478Y201711D01*
X298446Y201817D01*
X298417Y201924D01*
X298392Y202032D01*
X298371Y202141D01*
X298354Y202250D01*
X298340Y202360D01*
X298331Y202471D01*
X298325Y202581D01*
X298323Y202692D01*
X298325Y202803D01*
X298331Y202913D01*
X298340Y203024D01*
X298354Y203134D01*
X298371Y203243D01*
X298392Y203352D01*
X298417Y203460D01*
X298446Y203567D01*
X298478Y203673D01*
X298514Y203778D01*
X298554Y203881D01*
X298597Y203983D01*
X298644Y204084D01*
X298695Y204183D01*
X298748Y204280D01*
X298805Y204374D01*
X298866Y204467D01*
X298929Y204558D01*
X298996Y204647D01*
X299066Y204733D01*
X299139Y204816D01*
X299214Y204898D01*
X299292Y204976D01*
X299374Y205051D01*
X299457Y205124D01*
X299543Y205194D01*
X299632Y205261D01*
X299723Y205324D01*
X299816Y205385D01*
X299911Y205442D01*
X300007Y205495D01*
X300106Y205546D01*
X300207Y205593D01*
X300309Y205636D01*
X300412Y205676D01*
X300517Y205712D01*
X300623Y205744D01*
X300730Y205773D01*
X300838Y205798D01*
X300947Y205819D01*
X301056Y205836D01*
X301166Y205850D01*
X301277Y205859D01*
X301387Y205865D01*
X301498Y205867D01*
X306578Y205867D01*
X306689Y205865D01*
X306799Y205859D01*
X306910Y205850D01*
X307020Y205836D01*
X307129Y205819D01*
X307238Y205798D01*
X307346Y205773D01*
X307453Y205744D01*
X307559Y205712D01*
X307664Y205676D01*
X307767Y205636D01*
X307869Y205593D01*
X307970Y205546D01*
X308069Y205495D01*
X308166Y205442D01*
X308260Y205385D01*
X308353Y205324D01*
X308444Y205261D01*
X308533Y205194D01*
X308619Y205124D01*
X308702Y205051D01*
X308784Y204976D01*
X308862Y204898D01*
X308937Y204816D01*
X309010Y204733D01*
X309080Y204647D01*
X309147Y204558D01*
X309210Y204467D01*
X309271Y204374D01*
X309328Y204279D01*
X309381Y204183D01*
X309432Y204084D01*
X309479Y203983D01*
X309522Y203881D01*
X309562Y203778D01*
X309598Y203673D01*
X309630Y203567D01*
X309659Y203460D01*
X309684Y203352D01*
X309705Y203243D01*
X309722Y203134D01*
X309736Y203024D01*
X309745Y202913D01*
X309751Y202803D01*
X309753Y202692D01*
X309751Y202581D01*
X309745Y202471D01*
X309736Y202360D01*
X309722Y202250D01*
X309705Y202141D01*
X309684Y202032D01*
X309659Y201924D01*
X309630Y201817D01*
X309598Y201711D01*
X309562Y201606D01*
X309522Y201503D01*
X309479Y201401D01*
X309432Y201300D01*
X309381Y201201D01*
X309328Y201104D01*
X309271Y201010D01*
X309210Y200917D01*
X309147Y200826D01*
X309080Y200737D01*
X309010Y200651D01*
X308937Y200568D01*
X308862Y200486D01*
X308784Y200408D01*
X308702Y200333D01*
X308619Y200260D01*
X308533Y200190D01*
X308444Y200123D01*
X308353Y200060D01*
X308260Y199999D01*
X308166Y199942D01*
X308069Y199889D01*
X307970Y199838D01*
X307869Y199791D01*
X307767Y199748D01*
X307664Y199708D01*
X307559Y199672D01*
X307453Y199640D01*
X307346Y199611D01*
X307238Y199586D01*
X307129Y199565D01*
X307020Y199548D01*
X306910Y199534D01*
X306799Y199525D01*
X306689Y199519D01*
X306578Y199517D01*
X306578Y211328D02*
X298323Y211328D01*
X306578Y211328D02*
X306689Y211330D01*
X306799Y211336D01*
X306910Y211345D01*
X307020Y211359D01*
X307129Y211376D01*
X307238Y211397D01*
X307346Y211422D01*
X307453Y211451D01*
X307559Y211483D01*
X307664Y211519D01*
X307767Y211559D01*
X307869Y211602D01*
X307970Y211649D01*
X308069Y211700D01*
X308166Y211753D01*
X308260Y211810D01*
X308353Y211871D01*
X308444Y211934D01*
X308533Y212001D01*
X308619Y212071D01*
X308702Y212144D01*
X308784Y212219D01*
X308862Y212297D01*
X308937Y212379D01*
X309010Y212462D01*
X309080Y212548D01*
X309147Y212637D01*
X309210Y212728D01*
X309271Y212821D01*
X309328Y212915D01*
X309381Y213012D01*
X309432Y213111D01*
X309479Y213212D01*
X309522Y213314D01*
X309562Y213417D01*
X309598Y213522D01*
X309630Y213628D01*
X309659Y213735D01*
X309684Y213843D01*
X309705Y213952D01*
X309722Y214061D01*
X309736Y214171D01*
X309745Y214282D01*
X309751Y214392D01*
X309753Y214503D01*
X309751Y214614D01*
X309745Y214724D01*
X309736Y214835D01*
X309722Y214945D01*
X309705Y215054D01*
X309684Y215163D01*
X309659Y215271D01*
X309630Y215378D01*
X309598Y215484D01*
X309562Y215589D01*
X309522Y215692D01*
X309479Y215794D01*
X309432Y215895D01*
X309381Y215994D01*
X309328Y216090D01*
X309271Y216185D01*
X309210Y216278D01*
X309147Y216369D01*
X309080Y216458D01*
X309010Y216544D01*
X308937Y216627D01*
X308862Y216709D01*
X308784Y216787D01*
X308702Y216862D01*
X308619Y216935D01*
X308533Y217005D01*
X308444Y217072D01*
X308353Y217135D01*
X308260Y217196D01*
X308166Y217253D01*
X308069Y217306D01*
X307970Y217357D01*
X307869Y217404D01*
X307767Y217447D01*
X307664Y217487D01*
X307559Y217523D01*
X307453Y217555D01*
X307346Y217584D01*
X307238Y217609D01*
X307129Y217630D01*
X307020Y217647D01*
X306910Y217661D01*
X306799Y217670D01*
X306689Y217676D01*
X306578Y217678D01*
X298323Y217678D01*
X298323Y225552D02*
X309753Y225552D01*
X298323Y222377D02*
X298323Y228727D01*
M02*
